<svg width="306" height="150" viewBox="0 0 306 150" fill="none" xmlns="http://www.w3.org/2000/svg">
<path d="M5.00629 113C4.45402 112.997 4.00349 113.441 4.00002 113.994C3.99655 114.546 4.44143 114.997 4.99371 115L5.00629 113ZM291.999 10.0494C292.026 9.49777 291.601 9.0285 291.049 9.00123L282.06 8.55673C281.509 8.52946 281.039 8.95451 281.012 9.50613C280.985 10.0577 281.41 10.527 281.962 10.5543L289.952 10.9494L289.557 18.9396C289.529 19.4912 289.955 19.9605 290.506 19.9878C291.058 20.0151 291.527 19.59 291.554 19.0384L291.999 10.0494ZM4.99371 115C6.35864 115.009 7.71621 115.015 9.06652 115.018L9.07186 113.018C7.72401 113.015 6.36885 113.009 5.00629 113L4.99371 115ZM13.0958 115.022C15.8103 115.019 18.4953 115.005 21.1516 114.981L21.1332 112.981C18.4825 113.005 15.8029 113.019 13.0936 113.022L13.0958 115.022ZM25.1804 114.935C27.8962 114.898 30.5821 114.849 33.2388 114.789L33.193 112.789C30.5428 112.85 27.8632 112.898 25.1533 112.935L25.1804 114.935ZM37.2621 114.687C39.9797 114.611 42.6666 114.522 45.3242 114.419L45.2469 112.421C42.5968 112.523 39.917 112.612 37.2064 112.687L37.2621 114.687ZM49.3371 114.253C52.0558 114.132 54.7436 113.996 57.4017 113.845L57.2884 111.849C54.6388 111.999 51.9592 112.134 49.2484 112.255L49.3371 114.253ZM61.3992 113.606C64.1179 113.433 66.8055 113.245 69.4633 113.039L69.3087 111.045C66.6606 111.25 63.9825 111.438 61.2728 111.61L61.3992 113.606ZM73.4598 112.714C76.1699 112.484 78.8491 112.235 81.4988 111.967L81.2976 109.977C78.6588 110.244 75.9902 110.492 73.2904 110.721L73.4598 112.714ZM85.5184 111.543C88.2136 111.247 90.8784 110.931 93.5143 110.593L93.2604 108.609C90.6366 108.945 87.9838 109.26 85.3002 109.555L85.5184 111.543ZM97.5339 110.059C100.222 109.689 102.881 109.296 105.512 108.879L105.199 106.903C102.582 107.318 99.9364 107.709 97.2609 108.078L97.5339 110.059ZM109.49 108.227C112.167 107.774 114.815 107.295 117.437 106.791L117.059 104.827C114.452 105.329 111.819 105.804 109.157 106.255L109.49 108.227ZM121.38 106.009C124.037 105.465 126.666 104.895 129.271 104.295L128.823 102.346C126.234 102.942 123.621 103.509 120.98 104.049L121.38 106.009ZM133.211 103.363C135.841 102.722 138.446 102.052 141.028 101.351L140.504 99.421C137.939 100.117 135.351 100.783 132.738 101.419L133.211 103.363ZM144.918 100.267C147.517 99.5238 150.094 98.7482 152.652 97.9397L152.049 96.0328C149.509 96.8357 146.95 97.6059 144.368 98.3444L144.918 100.267ZM156.489 96.6965C159.051 95.8467 161.593 94.9629 164.118 94.0441L163.434 92.1647C160.927 93.0769 158.403 93.9544 155.86 94.7983L156.489 96.6965ZM167.906 92.635C170.423 91.6777 172.924 90.6849 175.412 89.6555L174.647 87.8075C172.178 88.8294 169.694 89.8152 167.195 90.7656L167.906 92.635ZM179.134 88.0838C181.603 87.0204 184.059 85.9202 186.505 84.7824L185.662 82.969C183.233 84.0988 180.794 85.1912 178.343 86.247L179.134 88.0838ZM190.152 83.0544C192.569 81.8886 194.977 80.6855 197.378 79.444L196.459 77.6674C194.074 78.9005 191.683 80.0954 189.283 81.2531L190.152 83.0544ZM200.95 77.5666C203.311 76.3053 205.666 75.0064 208.019 73.6692L207.031 71.9304C204.693 73.2592 202.353 74.5496 200.007 75.8025L200.95 77.5666ZM211.529 71.6444C213.834 70.295 216.138 68.9081 218.442 67.4832L217.39 65.7823C215.099 67.1988 212.81 68.5773 210.519 69.9184L211.529 71.6444ZM221.852 65.346C224.107 63.9149 226.363 62.447 228.621 60.9416L227.512 59.2774C225.265 60.7748 223.022 62.2345 220.78 63.6575L221.852 65.346ZM231.962 58.6896C234.163 57.1885 236.368 55.6516 238.579 54.078L237.42 52.4486C235.219 54.0145 233.025 55.5439 230.835 57.0372L231.962 58.6896ZM241.869 51.713C244.02 50.1508 246.177 48.5539 248.342 46.9216L247.138 45.3246C244.982 46.9499 242.835 48.5397 240.694 50.0947L241.869 51.713ZM251.562 44.4728C253.674 42.8523 255.794 41.1981 257.924 39.5096L256.682 37.9424C254.56 39.6245 252.448 41.2722 250.344 42.8861L251.562 44.4728ZM261.06 37.005C263.136 35.3335 265.223 33.6294 267.321 31.8923L266.045 30.3518C263.954 32.0832 261.875 33.7814 259.806 35.447L261.06 37.005ZM270.397 29.3284C272.436 27.617 274.487 25.8746 276.55 24.1006L275.246 22.5841C273.189 24.3531 271.145 26.0903 269.111 27.7962L270.397 29.3284ZM279.588 21.4731C281.595 19.7278 283.614 17.9528 285.645 16.1476L284.317 14.6524C282.29 16.4531 280.277 18.2235 278.276 19.964L279.588 21.4731ZM288.648 13.4664C289.653 12.5653 290.66 11.6569 291.671 10.7412L290.329 9.25884C289.32 10.1725 288.315 11.0788 287.313 11.9777L288.648 13.4664ZM5.01258 112C3.90803 111.993 3.00699 112.883 3.00004 113.987C2.99309 115.092 3.88287 115.993 4.98742 116L5.01258 112ZM292.998 10.0988C293.052 8.99556 292.202 8.05699 291.099 8.00244L273.121 7.11346C272.018 7.05891 271.079 7.90903 271.024 9.01225C270.97 10.1155 271.82 11.054 272.923 11.1086L288.904 11.8988L288.113 27.8793C288.059 28.9825 288.909 29.921 290.012 29.9756C291.115 30.0301 292.054 29.18 292.109 28.0768L292.998 10.0988ZM4.98742 116C6.35353 116.009 7.71231 116.015 9.06386 116.018L9.07452 112.018C7.7279 112.015 6.37396 112.009 5.01258 112L4.98742 116ZM13.0969 116.022C15.814 116.019 18.5017 116.005 21.1608 115.981L21.124 111.981C18.4761 112.005 15.7992 112.019 13.0925 112.022L13.0969 116.022ZM25.1939 115.935C27.9128 115.898 30.6017 115.849 33.2617 115.788L33.1702 111.789C30.5231 111.85 27.8466 111.898 25.1398 111.935L25.1939 115.935ZM37.29 115.686C40.011 115.61 42.7016 115.521 45.3628 115.418L45.2083 111.421C42.5619 111.524 39.8857 111.612 37.1785 111.688L37.29 115.686ZM49.3814 115.252C52.1041 115.131 54.796 114.995 57.4584 114.844L57.2317 110.85C54.5863 111 51.9109 111.135 49.204 111.256L49.3814 115.252ZM61.4624 114.604C64.1857 114.431 66.8779 114.242 69.5406 114.036L69.2315 110.048C66.5882 110.252 63.9147 110.44 61.2096 110.612L61.4624 114.604ZM73.5445 113.71C76.2598 113.48 78.9443 113.23 81.5995 112.962L81.1969 108.982C78.5636 109.248 75.9004 109.496 73.2057 109.725L73.5445 113.71ZM85.6275 112.537C88.3285 112.24 90.9992 111.923 93.6413 111.585L93.1334 107.618C90.5158 107.953 87.8689 108.267 85.1911 108.561L85.6275 112.537ZM97.6704 111.05C100.365 110.679 103.031 110.284 105.668 109.867L105.042 105.916C102.432 106.329 99.7934 106.72 97.1244 107.087L97.6704 111.05ZM109.657 109.213C112.341 108.759 114.997 108.279 117.626 107.773L116.87 103.845C114.271 104.345 111.645 104.82 108.99 105.269L109.657 109.213ZM121.581 106.988C124.245 106.444 126.883 105.871 129.495 105.27L128.598 101.372C126.018 101.965 123.412 102.531 120.779 103.07L121.581 106.988ZM133.448 104.334C136.086 103.692 138.699 103.02 141.29 102.316L140.242 98.4559C137.686 99.1499 135.106 99.8136 132.501 100.448L133.448 104.334ZM145.193 101.229C147.801 100.483 150.387 99.7045 152.953 98.8932L151.747 95.0793C149.217 95.8794 146.666 96.647 144.093 97.3829L145.193 101.229ZM156.804 97.6457C159.375 96.7929 161.926 95.9059 164.46 94.9839L163.092 91.2249C160.594 92.1338 158.079 93.0083 155.545 93.8491L156.804 97.6457ZM168.261 93.5697C170.788 92.609 173.298 91.6126 175.794 90.5796L174.265 86.8835C171.804 87.9017 169.33 88.8839 166.84 89.8309L168.261 93.5697ZM179.53 89.0023C182.007 87.935 184.472 86.8309 186.927 85.6891L185.24 82.0622C182.82 83.1881 180.389 84.2765 177.947 85.3286L179.53 89.0023ZM190.587 83.9551C193.012 82.7853 195.428 81.578 197.837 80.3323L196 76.7791C193.623 78.008 191.24 79.1988 188.849 80.3524L190.587 83.9551ZM201.421 78.4486C203.79 77.1831 206.153 75.88 208.513 74.5386L206.537 71.0611C204.206 72.3856 201.874 73.6717 199.536 74.9205L201.421 78.4486ZM212.034 72.5075C214.347 71.1538 216.657 69.7628 218.968 68.3337L216.864 64.9318C214.58 66.3442 212.297 67.7184 210.013 69.0554L212.034 72.5075ZM222.388 66.1903C224.649 64.7551 226.911 63.2832 229.176 61.7737L226.958 58.4452C224.717 59.9386 222.48 61.3943 220.245 62.8132L222.388 66.1903ZM232.525 59.5158C234.732 58.0109 236.943 56.4701 239.159 54.8927L236.84 51.6338C234.645 53.196 232.456 54.7215 230.272 56.211L232.525 59.5158ZM242.456 52.5221C244.613 50.9563 246.775 49.3559 248.944 47.7202L246.536 44.5261C244.385 46.1479 242.242 47.7342 240.106 49.2855L242.456 52.5221ZM252.171 45.2662C254.287 43.6423 256.412 41.9849 258.545 40.2933L256.061 37.1587C253.943 38.8376 251.835 40.4821 249.736 42.0927L252.171 45.2662ZM261.687 37.7841C263.767 36.1095 265.857 34.4024 267.959 32.6625L265.408 29.5816C263.32 31.3101 261.244 33.0054 259.179 34.668L261.687 37.7841ZM271.039 30.0944C273.082 28.3804 275.136 26.6354 277.202 24.8588L274.594 21.8259C272.54 23.5923 270.499 25.3269 268.469 27.0301L271.039 30.0944ZM280.244 22.2276C282.254 20.48 284.275 18.7026 286.31 16.8952L283.653 13.9048C281.629 15.7033 279.618 17.4714 277.619 19.2095L280.244 22.2276ZM289.316 14.2107C290.322 13.3086 291.33 12.3991 292.343 11.4823L289.657 8.51766C288.65 9.43033 287.646 10.3356 286.645 11.2334L289.316 14.2107Z" fill="#E0E0E0"/>
</svg>
