<svg width="100" height="100" viewBox="0 0 100 100" fill="none" xmlns="http://www.w3.org/2000/svg">
<g clip-path="url(#clip0)">
<path d="M67.9726 30.3026C66.8924 30.3026 66.0156 31.1754 66.0156 32.2549C66.0156 33.3337 66.8924 34.208 67.9726 34.208C69.055 34.208 69.9295 33.3337 69.9295 32.2549C69.9295 31.1754 69.055 30.3026 67.9726 30.3026Z" fill="#333333"/>
<path d="M32.4157 65.7891C31.3333 65.7891 30.4588 66.6642 30.4588 67.7422C30.4588 68.8225 31.3333 69.6953 32.4157 69.6953C33.4959 69.6953 34.3727 68.8225 34.3727 67.7422C34.3727 66.6642 33.4959 65.7891 32.4157 65.7891Z" fill="#333333"/>
<path d="M97.8588 12.0157C97.1984 11.8623 96.5042 12.0614 96.0272 12.5421L87.9143 20.7033H84.0249L79.7433 16.2759V12.3399L87.74 4.23978C88.2132 3.76066 88.4059 3.07172 88.2491 2.41636C88.0932 1.76175 87.6101 1.2338 86.971 1.01865C84.9621 0.342684 82.8599 0.000124261 80.7218 0.000124261C74.3479 0.000124261 68.5574 2.96644 64.8346 8.1384C61.3503 12.98 60.2763 18.9134 61.8151 24.592L47.4002 38.9787L23.3847 14.9553V10.2403C23.3847 9.55442 23.0239 8.91813 22.4346 8.56565L8.59756 0.278597C7.82702 -0.182981 6.84166 -0.0616738 6.20718 0.572329L0.672693 6.09525C0.0382135 6.72925 -0.0833311 7.71268 0.378386 8.48173L8.68012 22.2917C9.03329 22.8799 9.67006 23.2393 10.3573 23.24L15.08 23.2416L39.0977 47.265L24.7378 61.5968C19.0481 60.0618 13.1001 61.1353 8.24669 64.615C3.06766 68.3283 0.0978394 74.106 0.0978394 80.4674C0.0978394 82.6006 0.44107 84.6994 1.11836 86.7037C1.33469 87.3453 1.86903 87.8298 2.5295 87.9824C3.19073 88.1357 3.88407 87.9366 4.36184 87.4559L12.474 79.2955H16.3848L20.8407 83.7427V87.6459L12.6643 95.7422C12.1828 96.2191 11.9832 96.911 12.1369 97.571C12.2898 98.2302 12.7752 98.7635 13.4181 98.9794C15.4262 99.6553 17.5292 99.9979 19.6665 99.9979C26.0404 99.9979 31.8287 97.0331 35.5499 91.8642C39.0365 87.0203 40.1121 81.0846 38.574 75.4061L50.107 63.8956L52.7489 66.7597L51.5365 67.9689C50.7721 68.7319 50.7721 69.9686 51.5365 70.7315C52.3009 71.4937 53.5393 71.4937 54.3045 70.7315L55.4022 69.6359L80.1897 96.5082C80.2081 96.5281 80.2272 96.5471 80.2463 96.5662C84.8329 101.144 92.2639 101.145 96.8528 96.5654C101.429 91.9962 101.429 84.5613 96.8528 79.9921C96.833 79.9723 96.8123 79.9532 96.7917 79.9341L69.8248 55.2423L70.9103 54.1589C71.6747 53.3968 71.6747 52.16 70.9103 51.3971C70.1459 50.6342 68.9075 50.6342 68.1423 51.3971L66.9383 52.5995L64.0633 49.9658L75.6521 38.3997C77.2994 38.8391 78.9995 39.0619 80.7218 39.0619C91.5125 39.0619 100.29 30.3003 100.29 19.5314C100.29 17.3974 99.9473 15.2994 99.27 13.2944C99.0536 12.6527 98.5193 12.1683 97.8588 12.0157ZM17.2769 19.909C16.91 19.5421 16.4124 19.3551 15.8925 19.3551L11.4665 19.3536L4.52085 7.77982L7.89429 4.41297L19.4709 11.3466V15.764C19.4709 16.2813 19.6765 16.7772 20.0426 17.1434L44.6329 41.7413L41.8649 44.5032L17.2769 19.909ZM67.0545 58.0072L94.1131 82.7822C97.1357 85.8309 97.1265 90.7671 94.0848 93.8044C91.0363 96.847 86.1011 96.8561 83.0403 93.8311L58.1718 66.871L67.0545 58.0072ZM64.168 55.3636L55.5184 63.9948L52.8766 61.1307L61.293 52.73L64.168 55.3636ZM80.7218 35.1556C79.0102 35.1556 77.3269 34.8817 75.7201 34.3416C75.0161 34.1058 74.2379 34.2874 73.7119 34.8116C63.9012 44.6031 42.7616 65.7007 34.9774 73.4705C34.4514 73.9954 34.2687 74.7721 34.5065 75.4755C36.1332 80.2965 35.355 85.4387 32.3707 89.5853C29.3947 93.7197 24.7638 96.0917 19.6665 96.0917C19.094 96.0917 18.5245 96.0604 17.9603 96.0001L24.1759 89.8447C24.5459 89.4785 24.7546 88.9795 24.7546 88.4584V82.9332C24.7546 82.4152 24.5482 81.9185 24.1813 81.5523L18.5788 75.9607C18.2118 75.5945 17.7142 75.3885 17.1951 75.3885H11.6591C11.137 75.3885 10.6371 75.5968 10.2694 75.9661L4.1027 82.1695C4.04155 81.6065 4.01097 81.0381 4.01097 80.4666C4.01097 75.3786 6.38683 70.7575 10.5301 67.7873C14.684 64.8088 19.837 64.0314 24.6682 65.6557C25.3723 65.893 26.1505 65.7106 26.6764 65.1857C26.7842 65.0789 65.3834 26.5542 65.411 26.5268C65.9369 26.0019 66.1188 25.226 65.8818 24.5225C64.2544 19.7015 65.031 14.5608 68.0131 10.4173C70.9913 6.27912 75.623 3.90638 80.721 3.90638C81.3111 3.90638 81.8975 3.93918 82.4784 4.00327L76.392 10.1686C76.0312 10.534 75.8294 11.0261 75.8294 11.5388V17.064C75.8294 17.5706 76.0259 18.0566 76.3783 18.4205L81.7851 24.0121C82.1536 24.3936 82.6619 24.6088 83.1932 24.6088H88.7292C89.2505 24.6088 89.7505 24.4012 90.1182 24.0312L96.2849 17.8285C96.346 18.3916 96.3766 18.9599 96.3766 19.5314C96.3766 28.1465 89.3537 35.1556 80.7218 35.1556Z" fill="#333333"/>
<path d="M61.0544 36.3975L36.5659 60.8383C35.8022 61.6005 35.8022 62.8372 36.5659 63.6001C37.3303 64.3631 38.5694 64.3631 39.3339 63.6001L63.8225 39.1594C64.5869 38.3972 64.5869 37.1605 63.8225 36.3975C63.058 35.6346 61.8189 35.6346 61.0544 36.3975Z" fill="#333333"/>
<path d="M85.7839 88.2813C86.5483 89.0419 87.7875 89.0419 88.5519 88.2767C89.3148 87.513 89.3125 86.2763 88.5473 85.5148L70.908 67.9665C70.1428 67.2051 68.9029 67.2074 68.1408 67.9711C67.3771 68.7355 67.3794 69.9715 68.1446 70.7329L85.7839 88.2813Z" fill="#333333"/>
</g>
<defs>
<clipPath id="clip0">
<rect width="100" height="100" fill="white"/>
</clipPath>
</defs>
</svg>
