<svg width="107" height="19" viewBox="0 0 107 19" fill="none" xmlns="http://www.w3.org/2000/svg">
<path d="M7.52 6.22C8.41333 6.22 9.22667 6.4 9.96 6.76C10.6933 7.12 11.2733 7.63333 11.7 8.3C12.1267 8.95333 12.34 9.71333 12.34 10.58C12.34 11.5133 12.1067 12.3333 11.64 13.04C11.1733 13.7467 10.5333 14.2933 9.72 14.68C8.92 15.0533 8.02667 15.24 7.04 15.24C5.08 15.24 3.54667 14.64 2.44 13.44C1.33333 12.24 0.78 10.5267 0.78 8.3C0.78 6.71333 1.08 5.35333 1.68 4.22C2.28 3.08667 3.11333 2.22667 4.18 1.64C5.26 1.05333 6.50667 0.76 7.92 0.76C8.66667 0.76 9.38 0.846666 10.06 1.02C10.7533 1.18 11.34 1.41333 11.82 1.72L10.62 4.1C9.92667 3.63333 9.05333 3.4 8 3.4C6.81333 3.4 5.87333 3.74667 5.18 4.44C4.48667 5.13333 4.11333 6.14 4.06 7.46C4.88667 6.63333 6.04 6.22 7.52 6.22ZM6.86 12.82C7.55333 12.82 8.11333 12.6333 8.54 12.26C8.98 11.8867 9.2 11.38 9.2 10.74C9.2 10.1 8.98 9.59333 8.54 9.22C8.11333 8.83333 7.54 8.64 6.82 8.64C6.11333 8.64 5.53333 8.84 5.08 9.24C4.62667 9.62667 4.4 10.1267 4.4 10.74C4.4 11.3533 4.62 11.8533 5.06 12.24C5.5 12.6267 6.1 12.82 6.86 12.82ZM18.9144 0.999999V15H15.6744V3.6H12.8744V0.999999H18.9144ZM23.1864 15.16C22.6397 15.16 22.1797 14.9733 21.8064 14.6C21.4331 14.2267 21.2464 13.76 21.2464 13.2C21.2464 12.6267 21.4331 12.1667 21.8064 11.82C22.1797 11.46 22.6397 11.28 23.1864 11.28C23.7331 11.28 24.1931 11.46 24.5664 11.82C24.9397 12.1667 25.1264 12.6267 25.1264 13.2C25.1264 13.76 24.9397 14.2267 24.5664 14.6C24.1931 14.9733 23.7331 15.16 23.1864 15.16Z" fill="#333333"/>
<path d="M33.6408 4.08C34.6408 4.08 35.5474 4.31333 36.3608 4.78C37.1874 5.23333 37.8341 5.88 38.3008 6.72C38.7674 7.54667 39.0008 8.51333 39.0008 9.62C39.0008 10.7267 38.7674 11.7 38.3008 12.54C37.8341 13.3667 37.1874 14.0133 36.3608 14.48C35.5474 14.9333 34.6408 15.16 33.6408 15.16C32.2674 15.16 31.1874 14.7267 30.4008 13.86V18.88H27.2808V4.24H30.2608V5.48C31.0341 4.54667 32.1608 4.08 33.6408 4.08ZM33.1008 12.6C33.9008 12.6 34.5541 12.3333 35.0608 11.8C35.5808 11.2533 35.8408 10.5267 35.8408 9.62C35.8408 8.71333 35.5808 7.99333 35.0608 7.46C34.5541 6.91333 33.9008 6.64 33.1008 6.64C32.3008 6.64 31.6408 6.91333 31.1208 7.46C30.6141 7.99333 30.3608 8.71333 30.3608 9.62C30.3608 10.5267 30.6141 11.2533 31.1208 11.8C31.6408 12.3333 32.3008 12.6 33.1008 12.6ZM51.6475 9.66C51.6475 9.7 51.6275 9.98 51.5875 10.5H43.4475C43.5942 11.1667 43.9408 11.6933 44.4875 12.08C45.0342 12.4667 45.7142 12.66 46.5275 12.66C47.0875 12.66 47.5808 12.58 48.0075 12.42C48.4475 12.2467 48.8542 11.98 49.2275 11.62L50.8875 13.42C49.8742 14.58 48.3942 15.16 46.4475 15.16C45.2342 15.16 44.1608 14.9267 43.2275 14.46C42.2942 13.98 41.5742 13.32 41.0675 12.48C40.5608 11.64 40.3075 10.6867 40.3075 9.62C40.3075 8.56667 40.5542 7.62 41.0475 6.78C41.5542 5.92667 42.2408 5.26667 43.1075 4.8C43.9875 4.32 44.9675 4.08 46.0475 4.08C47.1008 4.08 48.0542 4.30667 48.9075 4.76C49.7608 5.21333 50.4275 5.86667 50.9075 6.72C51.4008 7.56 51.6475 8.54 51.6475 9.66ZM46.0675 6.44C45.3608 6.44 44.7675 6.64 44.2875 7.04C43.8075 7.44 43.5142 7.98667 43.4075 8.68H48.7075C48.6008 8 48.3075 7.46 47.8275 7.06C47.3475 6.64667 46.7608 6.44 46.0675 6.44ZM64.5391 15V8.56L61.3191 13.96H59.9991L56.8591 8.54V15H54.0391V4.24H57.2991L60.7391 10.46L64.3991 4.24H67.3191L67.3591 15H64.5391ZM75.3877 15.16C74.2543 15.16 73.2343 14.9267 72.3277 14.46C71.4343 13.98 70.7343 13.32 70.2277 12.48C69.721 11.64 69.4677 10.6867 69.4677 9.62C69.4677 8.55333 69.721 7.6 70.2277 6.76C70.7343 5.92 71.4343 5.26667 72.3277 4.8C73.2343 4.32 74.2543 4.08 75.3877 4.08C76.521 4.08 77.5343 4.32 78.4277 4.8C79.321 5.26667 80.021 5.92 80.5277 6.76C81.0343 7.6 81.2877 8.55333 81.2877 9.62C81.2877 10.6867 81.0343 11.64 80.5277 12.48C80.021 13.32 79.321 13.98 78.4277 14.46C77.5343 14.9267 76.521 15.16 75.3877 15.16ZM75.3877 12.6C76.1877 12.6 76.841 12.3333 77.3477 11.8C77.8677 11.2533 78.1277 10.5267 78.1277 9.62C78.1277 8.71333 77.8677 7.99333 77.3477 7.46C76.841 6.91333 76.1877 6.64 75.3877 6.64C74.5877 6.64 73.9277 6.91333 73.4077 7.46C72.8877 7.99333 72.6277 8.71333 72.6277 9.62C72.6277 10.5267 72.8877 11.2533 73.4077 11.8C73.9277 12.3333 74.5877 12.6 75.3877 12.6ZM83.4336 4.24H86.5336V8.44H91.2136V4.24H94.3336V15H91.2136V10.98H86.5336V15H83.4336V4.24ZM106.36 6.8H102.72V15H99.6203V6.8H95.9803V4.24H106.36V6.8Z" fill="#BDBDBD"/>
</svg>
