<svg width="120" height="120" viewBox="0 0 120 120" fill="none" xmlns="http://www.w3.org/2000/svg">
<path d="M85.2182 73.7088C84.1434 72.7462 82.4921 72.8401 81.5347 73.9123C76.093 79.9932 68.246 83.4784 59.9999 83.4784C51.7565 83.4784 43.9069 79.9932 38.4652 73.9123C37.5025 72.8401 35.8565 72.7462 34.7817 73.7088C33.7069 74.6688 33.6182 76.3175 34.5782 77.3923C41.0086 84.5767 50.2747 88.6958 59.9999 88.6958C69.7278 88.6958 78.9939 84.5741 85.4217 77.3923C86.3817 76.3175 86.2904 74.6688 85.2182 73.7088Z" fill="#D9D9D9"/>
<path d="M60 0C26.9165 0 0 26.9165 0 60C0 93.0835 26.9165 120 60 120C93.0835 120 120 93.0835 120 60C120 26.9165 93.0835 0 60 0ZM60 114.783C29.7913 114.783 5.21739 90.2087 5.21739 60C5.21739 29.7913 29.7913 5.21739 60 5.21739C90.2087 5.21739 114.783 29.7913 114.783 60C114.783 90.2087 90.2087 114.783 60 114.783Z" fill="#D9D9D9"/>
<path d="M80.8696 41.7393C73.6774 41.7393 67.8261 47.5906 67.8261 54.7827C67.8261 56.2227 68.9948 57.3914 70.4348 57.3914C71.8748 57.3914 73.0435 56.2227 73.0435 54.7827C73.0435 50.468 76.5548 46.9566 80.8696 46.9566C85.1844 46.9566 88.6957 50.468 88.6957 54.7827C88.6957 56.2227 89.8644 57.3914 91.3044 57.3914C92.7444 57.3914 93.9131 56.2227 93.9131 54.7827C93.9131 47.5906 88.0618 41.7393 80.8696 41.7393Z" fill="#D9D9D9"/>
<path d="M46.9565 54.7827C46.9565 56.2227 48.1252 57.3914 49.5652 57.3914C51.0052 57.3914 52.1739 56.2227 52.1739 54.7827C52.1739 47.5906 46.3226 41.7393 39.1305 41.7393C31.9383 41.7393 26.087 47.5906 26.087 54.7827C26.087 56.2227 27.2557 57.3914 28.6957 57.3914C30.1357 57.3914 31.3044 56.2227 31.3044 54.7827C31.3044 50.468 34.8157 46.9566 39.1305 46.9566C43.4452 46.9566 46.9565 50.468 46.9565 54.7827Z" fill="#D9D9D9"/>
</svg>
